<svg width="32" height="32" viewBox="0 0 32 32" fill="none" xmlns="http://www.w3.org/2000/svg">
<path d="M29 26.946L21.448 19.5692C23.2628 17.4411 24.1678 14.7114 23.9747 11.9481C23.7816 9.18484 22.5052 6.60064 20.4112 4.73313C18.3172 2.86561 15.5667 1.85856 12.732 1.92148C9.89717 1.9844 7.19635 3.11243 5.19133 5.07093C3.18632 7.02942 2.03149 9.66757 1.96708 12.4366C1.90267 15.2056 2.93363 17.8923 4.84551 19.9377C6.75738 21.9831 9.40296 23.2298 12.2319 23.4184C15.0608 23.6071 17.8553 22.7231 20.034 20.9504L27.586 28.3272L29 26.946ZM3.99999 12.6984C3.99999 10.9597 4.52783 9.25999 5.51677 7.81429C6.5057 6.36859 7.91131 5.2418 9.55584 4.57642C11.2004 3.91103 13.01 3.73694 14.7558 4.07615C16.5016 4.41536 18.1053 5.25264 19.364 6.48211C20.6226 7.71157 21.4798 9.27801 21.8271 10.9833C22.1743 12.6887 21.9961 14.4563 21.3149 16.0626C20.6337 17.669 19.4802 19.042 18.0001 20.008C16.5201 20.974 14.78 21.4896 13 21.4896C10.6139 21.487 8.32621 20.56 6.63896 18.9119C4.9517 17.2638 4.00264 15.0292 3.99999 12.6984Z" fill="#C4C4C4"/>
</svg>
