<svg width="571" height="362" viewBox="0 0 571 362" fill="none" xmlns="http://www.w3.org/2000/svg">
<g clip-path="url(#clip0)">
<path d="M421.893 87C420.302 87 418.776 87.6321 417.651 88.7574C416.525 89.8826 415.893 91.4087 415.893 93V129C415.893 130.591 416.525 132.117 417.651 133.243C418.776 134.368 420.302 135 421.893 135H457.893C459.485 135 461.011 134.368 462.136 133.243C463.261 132.117 463.893 130.591 463.893 129V93C463.893 91.4087 463.261 89.8826 462.136 88.7574C461.011 87.6321 459.485 87 457.893 87H421.893ZM426.393 94.5C442.962 94.5 456.393 107.931 456.393 124.5C456.393 125.296 456.077 126.059 455.515 126.621C454.952 127.184 454.189 127.5 453.393 127.5C452.598 127.5 451.835 127.184 451.272 126.621C450.709 126.059 450.393 125.296 450.393 124.5C450.393 118.135 447.865 112.03 443.364 107.529C438.863 103.029 432.759 100.5 426.393 100.5C425.598 100.5 424.835 100.184 424.272 99.6213C423.709 99.0587 423.393 98.2956 423.393 97.5C423.393 96.7044 423.709 95.9413 424.272 95.3787C424.835 94.8161 425.598 94.5 426.393 94.5ZM426.393 106.5C431.167 106.5 435.746 108.396 439.121 111.772C442.497 115.148 444.393 119.726 444.393 124.5C444.393 125.296 444.077 126.059 443.515 126.621C442.952 127.184 442.189 127.5 441.393 127.5C440.598 127.5 439.835 127.184 439.272 126.621C438.709 126.059 438.393 125.296 438.393 124.5C438.393 121.317 437.129 118.265 434.879 116.015C432.628 113.764 429.576 112.5 426.393 112.5C425.598 112.5 424.835 112.184 424.272 111.621C423.709 111.059 423.393 110.296 423.393 109.5C423.393 108.704 423.709 107.941 424.272 107.379C424.835 106.816 425.598 106.5 426.393 106.5ZM427.893 127.5C426.7 127.5 425.555 127.026 424.711 126.182C423.867 125.338 423.393 124.193 423.393 123C423.393 121.807 423.867 120.662 424.711 119.818C425.555 118.974 426.7 118.5 427.893 118.5C429.087 118.5 430.231 118.974 431.075 119.818C431.919 120.662 432.393 121.807 432.393 123C432.393 124.193 431.919 125.338 431.075 126.182C430.231 127.026 429.087 127.5 427.893 127.5Z" fill="#0F3F88"/>
</g>
<g clip-path="url(#clip1)">
<path d="M342.393 0C341.465 0 340.575 0.368749 339.918 1.02513C339.262 1.6815 338.893 2.57174 338.893 3.5V24.5C338.893 25.4283 339.262 26.3185 339.918 26.9749C340.575 27.6313 341.465 28 342.393 28H363.393C364.322 28 365.212 27.6313 365.868 26.9749C366.525 26.3185 366.893 25.4283 366.893 24.5V3.5C366.893 2.57174 366.525 1.6815 365.868 1.02513C365.212 0.368749 364.322 0 363.393 0L342.393 0ZM345.018 4.375C354.684 4.375 362.518 12.2098 362.518 21.875C362.518 22.3391 362.334 22.7842 362.006 23.1124C361.678 23.4406 361.232 23.625 360.768 23.625C360.304 23.625 359.859 23.4406 359.531 23.1124C359.203 22.7842 359.018 22.3391 359.018 21.875C359.018 18.162 357.543 14.601 354.918 11.9755C352.292 9.35 348.731 7.875 345.018 7.875C344.554 7.875 344.109 7.69063 343.781 7.36244C343.453 7.03425 343.268 6.58913 343.268 6.125C343.268 5.66087 343.453 5.21575 343.781 4.88756C344.109 4.55937 344.554 4.375 345.018 4.375ZM345.018 11.375C347.803 11.375 350.474 12.4812 352.443 14.4504C354.412 16.4195 355.518 19.0902 355.518 21.875C355.518 22.3391 355.334 22.7842 355.006 23.1124C354.678 23.4406 354.232 23.625 353.768 23.625C353.304 23.625 352.859 23.4406 352.531 23.1124C352.203 22.7842 352.018 22.3391 352.018 21.875C352.018 20.0185 351.281 18.238 349.968 16.9253C348.655 15.6125 346.875 14.875 345.018 14.875C344.554 14.875 344.109 14.6906 343.781 14.3624C343.453 14.0342 343.268 13.5891 343.268 13.125C343.268 12.6609 343.453 12.2158 343.781 11.8876C344.109 11.5594 344.554 11.375 345.018 11.375ZM345.893 23.625C345.197 23.625 344.529 23.3484 344.037 22.8562C343.545 22.3639 343.268 21.6962 343.268 21C343.268 20.3038 343.545 19.6361 344.037 19.1438C344.529 18.6516 345.197 18.375 345.893 18.375C346.59 18.375 347.257 18.6516 347.749 19.1438C348.242 19.6361 348.518 20.3038 348.518 21C348.518 21.6962 348.242 22.3639 347.749 22.8562C347.257 23.3484 346.59 23.625 345.893 23.625Z" fill="#FF9E3A"/>
</g>
<path d="M357.835 104.95C294.787 25.4299 203.888 55.4826 166.319 80.4489C128.81 79.5008 -41.5531 225.775 11.9105 302.64C65.3741 379.504 488.065 362.038 543.298 298.197C598.53 234.357 542.484 171.279 493.167 160.202C443.849 149.125 402.377 145.843 357.835 104.95Z" fill="#F5F6F7"/>
<mask id="path-4-inside-1" fill="white">
<path fill-rule="evenodd" clip-rule="evenodd" d="M159.749 48C138.35 70.5658 125.223 101.053 125.223 134.606C125.223 204.132 181.584 260.493 251.11 260.493C284.663 260.493 315.15 247.366 337.716 225.967L159.749 48Z"/>
</mask>
<path fill-rule="evenodd" clip-rule="evenodd" d="M159.749 48C138.35 70.5658 125.223 101.053 125.223 134.606C125.223 204.132 181.584 260.493 251.11 260.493C284.663 260.493 315.15 247.366 337.716 225.967L159.749 48Z" fill="#ECF0FB"/>
<path d="M159.749 48L161.163 46.5858L159.711 45.1335L158.297 46.6238L159.749 48ZM337.716 225.967L339.092 227.419L340.583 226.005L339.13 224.553L337.716 225.967ZM127.223 134.606C127.223 101.585 140.14 71.5853 161.2 49.3762L158.297 46.6238C136.561 69.5463 123.223 100.521 123.223 134.606H127.223ZM251.11 258.493C182.689 258.493 127.223 203.027 127.223 134.606H123.223C123.223 205.236 180.48 262.493 251.11 262.493V258.493ZM336.34 224.516C314.131 245.576 284.131 258.493 251.11 258.493V262.493C285.195 262.493 316.17 249.155 339.092 227.419L336.34 224.516ZM339.13 224.553L161.163 46.5858L158.335 49.4142L336.302 227.382L339.13 224.553Z" fill="#0F3F88" mask="url(#path-4-inside-1)"/>
<path d="M168.025 228.392L150.4 246.016L180.613 285.67" stroke="#0F3F88" stroke-width="4"/>
<circle cx="151.659" cy="246.645" r="7.55319" fill="#0F3F88"/>
<rect x="165.507" y="281.894" width="27.695" height="15.1064" rx="7.55319" fill="#0F3F88"/>
<line x1="260.077" y1="128.467" x2="250.006" y2="138.538" stroke="#0F3F88" stroke-width="4"/>
<circle cx="266.845" cy="123.906" r="13.2181" fill="#0F3F88"/>
<path opacity="0.8" d="M268.734 100.963C276.451 99.5814 291.514 101.607 290.033 120.759" stroke="#0F3F88" stroke-width="3" stroke-linecap="round" stroke-linejoin="round"/>
<path opacity="0.5" d="M268.734 92.3017C279.628 90.3163 300.895 93.2282 298.803 120.759" stroke="#0F3F88" stroke-width="3" stroke-linecap="round" stroke-linejoin="round"/>
<path opacity="0.3" d="M268.734 82.4037C283.26 79.7278 311.615 83.6525 308.826 120.759" stroke="#0F3F88" stroke-width="3" stroke-linecap="round" stroke-linejoin="round"/>
<defs>
<clipPath id="clip0">
<rect width="48" height="48" fill="white" transform="translate(415.893 87)"/>
</clipPath>
<clipPath id="clip1">
<rect width="28" height="28" fill="white" transform="translate(338.893)"/>
</clipPath>
</defs>
</svg>
