<svg width="224" height="249" viewBox="0 0 224 249" fill="none" xmlns="http://www.w3.org/2000/svg">
<circle cx="100.709" cy="133.184" r="100.709" fill="#ECF0FB" fill-opacity="0.5"/>
<mask id="path-2-inside-1" fill="white">
<path fill-rule="evenodd" clip-rule="evenodd" d="M45.8554 0C24.4568 22.5658 11.3298 53.0531 11.3298 86.6064C11.3298 156.132 67.6911 212.493 137.216 212.493C170.77 212.493 201.257 199.366 223.823 177.967L45.8554 0Z"/>
</mask>
<path fill-rule="evenodd" clip-rule="evenodd" d="M45.8554 0C24.4568 22.5658 11.3298 53.0531 11.3298 86.6064C11.3298 156.132 67.6911 212.493 137.216 212.493C170.77 212.493 201.257 199.366 223.823 177.967L45.8554 0Z" fill="#ECF0FB"/>
<path d="M45.8554 0L47.2696 -1.41421L45.8174 -2.86647L44.4042 -1.37618L45.8554 0ZM223.823 177.967L225.199 179.419L226.689 178.005L225.237 176.553L223.823 177.967ZM13.3298 86.6064C13.3298 53.5853 26.2463 23.5853 47.3067 1.37618L44.4042 -1.37618C22.6673 21.5463 9.32979 52.5209 9.32979 86.6064H13.3298ZM137.216 210.493C68.7957 210.493 13.3298 155.027 13.3298 86.6064H9.32979C9.32979 157.236 66.5865 214.493 137.216 214.493V210.493ZM222.447 176.516C200.237 197.576 170.237 210.493 137.216 210.493V214.493C171.302 214.493 202.276 201.155 225.199 179.419L222.447 176.516ZM225.237 176.553L47.2696 -1.41421L44.4412 1.41421L222.409 179.382L225.237 176.553Z" fill="#0F3F88" mask="url(#path-2-inside-1)"/>
<path d="M54.1312 180.392L36.5071 198.016L66.7199 237.67" stroke="#0F3F88" stroke-width="4"/>
<circle cx="37.766" cy="198.645" r="7.55319" fill="#0F3F88"/>
<rect x="51.6135" y="233.894" width="27.695" height="15.1064" rx="7.55319" fill="#0F3F88"/>
<line x1="146.184" y1="80.4672" x2="136.113" y2="90.5381" stroke="#0F3F88" stroke-width="4"/>
<circle cx="152.952" cy="75.9061" r="13.2181" fill="#0F3F88"/>
<path opacity="0.8" d="M154.84 52.9625C162.557 51.5814 177.621 53.6071 176.139 72.7588" stroke="#0F3F88" stroke-width="3" stroke-linecap="round" stroke-linejoin="round"/>
<path opacity="0.5" d="M154.84 44.3017C165.735 42.3163 187.001 45.2282 184.91 72.7588" stroke="#0F3F88" stroke-width="3" stroke-linecap="round" stroke-linejoin="round"/>
<path opacity="0.3" d="M154.84 34.4037C169.367 31.7278 197.722 35.6525 194.933 72.759" stroke="#0F3F88" stroke-width="3" stroke-linecap="round" stroke-linejoin="round"/>
</svg>
