<svg width="223" height="249" viewBox="0 0 223 249" fill="none" xmlns="http://www.w3.org/2000/svg">
<circle cx="100.339" cy="132.695" r="100.339" fill="#FFE1E1" fill-opacity="0.5"/>
<mask id="path-2-inside-1" fill="white">
<path fill-rule="evenodd" clip-rule="evenodd" d="M45.6868 0C24.3669 22.4829 11.2881 52.8581 11.2881 86.2881C11.2881 155.558 67.4422 211.712 136.712 211.712C170.142 211.712 200.517 198.633 223 177.313L45.6868 0Z"/>
</mask>
<path fill-rule="evenodd" clip-rule="evenodd" d="M45.6868 0C24.3669 22.4829 11.2881 52.8581 11.2881 86.2881C11.2881 155.558 67.4422 211.712 136.712 211.712C170.142 211.712 200.517 198.633 223 177.313L45.6868 0Z" fill="#FFE1E1"/>
<path d="M45.6868 0L47.101 -1.41421L45.6487 -2.86647L44.2355 -1.37618L45.6868 0ZM223 177.313L224.376 178.764L225.866 177.351L224.414 175.899L223 177.313ZM13.2881 86.2881C13.2881 53.3903 26.1564 23.5023 47.138 1.37618L44.2355 -1.37618C22.5774 21.4634 9.28809 52.3259 9.28809 86.2881H13.2881ZM136.712 209.712C68.5468 209.712 13.2881 154.453 13.2881 86.2881H9.28809C9.28809 156.662 66.3377 213.712 136.712 213.712V209.712ZM221.624 175.862C199.498 196.844 169.61 209.712 136.712 209.712V213.712C170.674 213.712 201.537 200.423 224.376 178.764L221.624 175.862ZM224.414 175.899L47.101 -1.41421L44.2726 1.41421L221.586 178.727L224.414 175.899Z" fill="#0F3F88" mask="url(#path-2-inside-1)"/>
<path d="M53.9324 179.729L36.373 197.288L66.4748 236.797" stroke="#0F3F88" stroke-width="4"/>
<circle cx="37.627" cy="197.915" r="7.52543" fill="#0F3F88"/>
<rect x="51.4238" y="233.034" width="27.5932" height="15.0509" rx="7.52543" fill="#0F3F88"/>
<line x1="145.652" y1="80.1767" x2="135.618" y2="90.2106" stroke="#0F3F88" stroke-width="4"/>
<circle cx="152.39" cy="75.627" r="13.1695" fill="#0F3F88"/>
<path opacity="0.8" d="M154.271 52.7679C161.96 51.3919 176.968 53.4101 175.492 72.4914" stroke="#F79595" stroke-width="3" stroke-linecap="round" stroke-linejoin="round"/>
<path opacity="0.5" d="M154.271 44.1388C165.126 42.1607 186.314 45.0619 184.23 72.4913" stroke="#F8AAAA" stroke-opacity="0.5" stroke-width="3" stroke-linecap="round" stroke-linejoin="round"/>
<path opacity="0.3" d="M154.271 34.277C168.744 31.6109 196.995 35.5212 194.216 72.4912" stroke="#F8AAAA" stroke-opacity="0.3" stroke-width="3" stroke-linecap="round" stroke-linejoin="round"/>
</svg>
